PathFileType	4	(X/Y/Z)	pose_F01_0-89.trc
DataRate	CameraRate	NumFrames	NumMarkers	Units	OrigDataRate	OrigDataStartFrame	OrigNumFrames
30	30	8	21	m	30	38	89
Frame#	Time	CHip			RHip			RKnee			RAnkle			RBigToe			RSmallToe			RHeel			LHip			LKnee			LAnkle			LBigToe			LSmallToe			LHeel			Neck			Nose			RShoulder			RElbow			RWrist			LShoulder			LElbow			LWrist			
		X1	Y1	Z1	X2	Y2	Z2	X3	Y3	Z3	X4	Y4	Z4	X5	Y5	Z5	X6	Y6	Z6	X7	Y7	Z7	X8	Y8	Z8	X9	Y9	Z9	X10	Y10	Z10	X11	Y11	Z11	X12	Y12	Z12	X13	Y13	Z13	X14	Y14	Z14	X15	Y15	Z15	X16	Y16	Z16	X17	Y17	Z17	X18	Y18	Z18	X19	Y19	Z19	X20	Y20	Z20	X21	Y21	Z21	
38	1.2666666666666666	-0.22406883924787738	1.8783236223957895	-0.5766179534717633	-0.2433040601452047	1.873523157624585	-0.5208979299948524	-0.2290320476812598	1.7193454702898308	-0.4967043960165528													-0.20452069225175368	1.883045077842691	-0.6357236093101231	-0.20537854913559317	1.7200079290245105	-0.6224657706870989	-0.20629178085447725	1.556626955624285	-0.608882262259664	-0.24501860737230924	1.5135193786818981	-0.6496820762376214	-0.2273027115154326	1.5186139671953862	-0.6674790676399045	-0.19897581553927116	1.545060083672495	-0.5853646700555241	-0.2266922287772249	2.046334280176159	-0.5514753015764116	-0.23997279970889335	2.125457022218611	-0.6043518551294186	-0.24953774100660744	2.039886738756549	-0.4847846323808354	-0.25172406397941294	1.9478367714521674	-0.46045235045984945	-0.2601195419689961	1.8671820645299453	-0.45005824097691516	-0.2029904494480069	2.0527329308471574	-0.6294964731115633	-0.19042266607524527	2.0285008181091637	-0.7396085880170081	-0.22911927192392048	2.094188969397816	-0.7078674331741901
39	1.3	-0.22439005809057652	1.8820819712807484	-0.5772485693681072	-0.24367557638135404	1.8750934384864402	-0.5212879793349026	-0.22723898989556282	1.7184796117058156	-0.4985850559326707													-0.20468253848607143	1.8877820721759992	-0.6363619364233207	-0.20601428191349103	1.721893105711015	-0.6219704262481053	-0.20627601510597912	1.556930738467215	-0.6088543041827302	-0.24381349425169058	1.5153208085563272	-0.6471500209260382	-0.22698274893185316	1.520004079886244	-0.6680883119253838	-0.19898755936392754	1.5454261419725364	-0.5853616898076535	-0.22572167923968314	2.0485928654981382	-0.5488465660787604	-0.23771992436855743	2.130598903282511	-0.6072456846495059	-0.24846169892560024	2.0409665713048164	-0.4818096125296436	-0.2516365229338739	1.9503594522817937	-0.4608920141008253	-0.25997846447942285	1.8712334750269437	-0.4506354587123675	-0.20204850272215805	2.0550697679613155	-0.6269542762304089	-0.19042266607524527	2.0285008181091637	-0.7396085880170081	-0.2264808013437432	2.103424696851393	-0.7052547752368846
40	1.3333333333333333	-0.22444905347147603	1.872743352977067	-0.5759054159710026	-0.24375879841466003	1.8679494473163833	-0.5201535993996155	-0.22942285047485625	1.7139072230861547	-0.4955687430311051													-0.20384696123322493	1.8789341366901724	-0.6320616101064472	-0.2042534066791556	1.7120508144739766	-0.6227434395594141	-0.2065460573263415	1.555167753407135	-0.6083928742667821	-0.24424794682201761	1.5148320198874814	-0.6462150496178555	-0.22728540043795523	1.5185209596433569	-0.6674016391602391	-0.20035586085995583	1.5442980487699978	-0.5880177105541562	-0.22672024907496138	2.0464847478091754	-0.5515369552851078	-0.2356062686271413	2.134991956866251	-0.6100675172722064	-0.25149290651624456	2.039823399782526	-0.48280602532412575	-0.2528111602536498	1.947937518229132	-0.46357501166965887	-0.26127096920932336	1.8693715038096057	-0.45359075852635766	-0.20102943099090645	2.052889632308345	-0.6323027151659586	-0.19042266607524527	2.0285008181091637	-0.7396085880170081	-0.22384233076356597	2.1126604243049703	-0.7026421172995791
41	1.3666666666666667	-0.22427753220990393	1.8740695125801226	-0.5761560225635095	-0.24466061675916886	1.8680657327190506	-0.5234766457221961	-0.22962226911872083	1.712660859279471	-0.4952176205171345													-0.20269574148068178	1.8790733735931395	-0.6373040540857324	-0.20607330518241607	1.7133996390030792	-0.6209617256107473	-0.20644595021856663	1.5548926024513885	-0.608460136677467	-0.2450431080363882	1.5135739009222735	-0.649741852166872	-0.2282624569379874	1.5184788554480813	-0.6706573411878688	-0.19791366790168918	1.5427588593233392	-0.5905301737730693	-0.22767851146911278	2.0478182744262634	-0.5551842092920968	-0.23473938566141495	2.134814477868169	-0.6080271521748026	-0.2514685525765011	2.039855034435076	-0.48293780554294496	-0.2548151482964485	1.9488282899042852	-0.46186149531259085	-0.2622505377059456	1.8693952000950067	-0.4568102442821509	-0.2009987505103496	2.0551007338967784	-0.6327914687199445	-0.19042266607524527	2.0285008181091637	-0.7396085880170081	-0.22207748341944694	2.1171342054690276	-0.6928509628147366
42	1.4	-0.2254569074537874	1.8770530053568488	-0.5797911622346954	-0.24574189931651744	1.872436308335177	-0.5272319486939768	-0.22939952105041309	1.7165538290570836	-0.4959672029312336													-0.2037307135179247	1.884296591201956	-0.6412418714236641	-0.205856119824769	1.717517166293648	-0.6217490092578023	-0.20836044478645913	1.5564271071258813	-0.6067119668818592	-0.2430417695856062	1.5149150471630803	-0.6515394953094824	-0.22483313927558832	1.5201383241958752	-0.6702236456708508	-0.20101249454830228	1.5440327154414557	-0.5834955823166686	-0.22661676749630796	2.0504308664018454	-0.5607134520927752	-0.2297512370216848	2.134614355865235	-0.609353070833498	-0.2523183923054087	2.039995963375711	-0.485446532484612	-0.25393283033121467	1.9489092926897726	-0.4672161556280521	-0.2632596468178448	1.8695165992080167	-0.4601013277910824	-0.1988776761159055	2.0574440130492544	-0.6352990487566554	-0.19042266607524527	2.0285008181091637	-0.7396085880170081	-0.22031263607532794	2.121607986633085	-0.6830598083298941
43	1.4333333333333333	-0.2252522680640499	1.875316966858958	-0.5797188876593409	-0.24262139448748987	1.8706518444215485	-0.5261243278389331	-0.22932030557828595	1.7187716833314175	-0.49632194259281764													-0.20358447766514706	1.882681002574384	-0.6411635508369321	-0.20406040112023688	1.716797352397227	-0.6235029467298975	-0.20628519937013307	1.5565435129885619	-0.6089530086309491	-0.2426408467189894	1.5152183343556993	-0.6525064967137387	-0.22793289875411293	1.5199883210622216	-0.6713612555751958	-0.2002629471907805	1.5435908172308466	-0.5882751332598971	-0.22868555112469446	2.0491911977666732	-0.5587961228479231	-0.23207749029280175	2.133809873260234	-0.5990514477709308	-0.2505239316667068	2.0388261379839134	-0.48759640124581777	-0.2541175421559624	1.9492171764094022	-0.4676211923944076	-0.26264239374742293	1.8730204186960935	-0.4576079154664157	-0.20309971622851522	2.058363811875142	-0.631467439685492	-0.19042266607524527	2.0285008181091637	-0.7396085880170081	-0.22081541437079702	2.1267099903372957	-0.6809650899186915
44	1.4666666666666666	-0.22624403008712424	1.8729231027573596	-0.5824661174280837	-0.24364030090676572	1.8682924854937146	-0.528920550145897	-0.2308147403211739	1.7178643109951137	-0.4946103068243384													-0.20374399819689162	1.8779057455685921	-0.6405086791813936	-0.20608755620498084	1.7219518693666447	-0.6259630045464619	-0.20593697179098314	1.5578457644174046	-0.6095597062470915	-0.24392917959714713	1.5162948757930224	-0.6467366546800589	-0.22628081024556193	1.5213796278619658	-0.6645820774686576	-0.19893643182465418	1.5473085580334727	-0.586052072566423	-0.226726177618665	2.049209489767581	-0.5608669532403885	-0.23409234719228678	2.136290127936224	-0.5970609557360474	-0.2505665540069305	2.038882817232218	-0.4876388869549671	-0.25398123065301365	1.9480960362375639	-0.46741135364958575	-0.2625931401105601	1.8685204849410382	-0.46539155187167724	-0.20106092145547924	2.0573606852651056	-0.6337191803910943	-0.19042266607524527	2.0285008181091637	-0.7396085880170081	-0.2213181926662661	2.1318119940415063	-0.678870371507489
45	1.5	-0.22378211864623868	1.8772626009454283	-0.5851814043470841	-0.24331145535442436	1.8713394944171975	-0.5292967605775444	-0.22904702022515655	1.7200152102905122	-0.49674969911362765													-0.2041803674362773	1.8832293234265876	-0.6443171399671612	-0.20392509399239597	1.7183574104759625	-0.6279185550909637	-0.2065772292220789	1.5551369586738313	-0.6083863497009933	-0.24423377338242774	1.5148459600558213	-0.6461686614691007	-0.2272776540404903	1.5186149729243092	-0.6674024286256035	-0.20023579652702672	1.5433206729541737	-0.5883432875745577	-0.22670490857462838	2.0492096803899726	-0.5609295289102066	-0.23205031764674341	2.136272859839289	-0.5902381739456551	-0.25242302264621425	2.038817386538211	-0.4855646800031666	-0.2539367612023154	1.9466672389350315	-0.4670169949138859	-0.26436313992832444	1.864472819537256	-0.4710809696667511	-0.19903005807691865	2.057224121141092	-0.6359476367682196	-0.19042266607524527	2.0285008181091637	-0.7396085880170081	-0.2171379849733213	2.132598058109921	-0.6835945605711982
